<mxfile host="app.diagrams.net" modified="2024-04-10T13:45:33.392Z" agent="Mozilla/5.0 (Macintosh; Intel Mac OS X 10_15_7) AppleWebKit/537.36 (KHTML, like Gecko) Chrome/122.0.0.0 Safari/537.36" version="22.1.17" etag="ua5jTruKdfgQc1UEnGeE" type="github">
  <diagram name="第 1 页" id="XGprGWBlJw7wvIv0rpM6">
    <mxGraphModel>
      <root>
        <mxCell id="0" />
        <mxCell id="1" parent="0" />
      </root>
    </mxGraphModel>
  </diagram>
</mxfile>
